<?xml version="1.0" standalone="no"?>
<!DOCTYPE svg PUBLIC "-//W3C//DTD SVG 20010904//EN"
 "http://www.w3.org/TR/2001/REC-SVG-20010904/DTD/svg10.dtd">
<svg version="1.0" xmlns="http://www.w3.org/2000/svg"
 width="224.000000pt" height="224.000000pt" viewBox="0 0 224.000000 224.000000"
 preserveAspectRatio="xMidYMid meet">

<g transform="translate(0.000000,224.000000) scale(0.100000,-0.100000)"
fill="#000000" stroke="none">
<path d="M0 2086 l0 -155 63 29 c119 54 171 64 312 63 192 -1 327 -42 487
-150 59 -40 178 -161 178 -182 0 -4 -37 28 -81 70 -174 163 -363 239 -593 239
-112 0 -179 -14 -292 -61 l-74 -31 0 -289 c0 -248 2 -288 15 -283 23 9 65 -40
65 -76 0 -59 -36 -90 -68 -58 -9 9 -12 6 -12 -15 0 -24 4 -27 33 -27 34 0 67
-26 81 -64 3 -10 -3 -47 -14 -83 -31 -102 -8 -171 76 -221 68 -42 91 -105 57
-163 -26 -43 -77 -64 -123 -50 -46 13 -63 32 -89 96 l-20 50 2 -140 2 -140 75
-37 c85 -42 195 -74 290 -84 l64 -7 -24 31 c-14 17 -32 34 -41 37 -15 5 -62
69 -101 138 -24 43 -14 60 31 52 20 -4 56 -7 81 -6 64 2 150 -27 255 -88 100
-58 167 -81 232 -81 82 0 127 39 172 148 48 116 133 235 259 365 65 65 138
135 165 154 26 19 61 55 78 79 16 24 60 79 96 122 36 42 75 97 86 122 11 25
24 55 30 67 6 14 6 43 -2 87 -10 54 -9 75 3 115 22 73 31 87 75 104 22 9 42
21 46 27 9 15 73 40 103 40 15 0 45 -7 68 -16 39 -15 46 -15 94 1 28 9 62 14
75 11 l25 -6 0 210 0 210 -1120 0 -1120 0 0 -154z m192 -364 c15 -31 17 -32
23 -13 14 46 70 49 81 5 9 -36 -3 -69 -30 -83 -30 -16 -56 -8 -63 19 l-6 21
-14 -21 c-18 -26 -37 -25 -63 2 -24 26 -26 56 -4 86 22 32 55 25 76 -16z m-82
-85 c13 -24 13 -30 0 -54 -12 -21 -23 -28 -45 -28 -27 0 -30 4 -33 33 -4 39
22 85 46 80 9 -2 23 -15 32 -31z m216 -32 c13 -20 14 -30 4 -59 -14 -44 -39
-54 -62 -26 -24 29 -23 65 2 90 26 26 36 25 56 -5z m872 -33 c2 -7 -7 -12 -26
-12 -28 0 -29 -2 -46 -82 -10 -46 -20 -91 -23 -101 -4 -16 -1 -18 19 -12 22 7
21 6 -4 -14 -27 -21 -55 -21 -42 1 4 5 -5 2 -19 -7 -31 -20 -47 -13 -47 21 0
44 28 93 65 115 19 12 35 28 35 36 0 20 57 76 72 71 6 -2 14 -10 16 -16z
m-618 -5 c0 -21 -22 -37 -50 -37 -25 0 -28 -5 -47 -90 l-20 -90 20 0 c11 0 17
-3 13 -7 -8 -8 -86 -11 -86 -4 0 2 7 9 15 15 8 6 23 48 33 94 l19 82 -28 0
c-41 0 -62 -26 -56 -67 4 -24 2 -33 -6 -30 -17 5 -21 46 -7 73 18 32 62 47
121 42 44 -5 52 -3 56 13 6 22 23 26 23 6z m-368 -13 c7 -8 28 -30 45 -49 37
-38 37 -39 23 -66 -8 -13 -21 -19 -48 -19 -70 0 -167 33 -183 61 -12 24 5 59
29 59 9 0 28 7 42 14 34 19 77 19 92 0z m536 -78 c-1 -13 -7 -22 -13 -20 -18
7 -44 -28 -53 -71 -4 -21 -14 -41 -21 -43 -14 -5 -12 22 6 98 6 22 5 24 -10
11 -10 -8 -17 -9 -17 -3 0 11 38 42 52 42 5 0 8 -8 8 -17 0 -14 3 -13 20 5 26
28 30 28 28 -2z m102 5 c0 -4 -11 -13 -25 -19 -29 -13 -32 -6 -9 19 16 17 34
17 34 0z m-225 -21 c0 -17 -10 -31 -32 -45 -18 -11 -32 -28 -33 -37 0 -19 25
-25 35 -8 3 6 12 10 18 10 7 0 -1 -12 -17 -26 -49 -43 -75 -21 -62 51 13 67
91 114 91 55z m170 -2 c-3 -44 -27 -118 -40 -118 -10 0 -10 12 0 60 9 44 9 60
1 60 -6 0 -2 7 8 15 24 18 32 13 31 -17z m130 2 c0 -17 -10 -31 -32 -45 -18
-11 -32 -28 -33 -37 0 -19 25 -25 35 -8 3 6 12 10 18 10 7 0 -1 -12 -17 -26
-37 -33 -60 -28 -64 13 -3 33 29 108 50 116 26 11 43 2 43 -23z m320 0 c0 -17
-10 -31 -32 -45 -18 -11 -32 -28 -33 -37 0 -19 25 -25 35 -8 3 6 12 10 18 10
17 -1 -41 -50 -58 -50 -36 0 -28 82 12 131 30 35 58 35 58 -1z m112 15 c7 -21
-4 -32 -19 -17 -7 7 -16 12 -20 12 -14 0 -9 -37 7 -50 8 -7 15 -25 15 -41 0
-35 -40 -60 -68 -42 -20 12 -22 35 -4 41 6 2 12 -3 12 -12 0 -20 29 -21 37 -1
3 9 -2 24 -11 34 -19 21 -21 62 -4 79 17 17 48 15 55 -3z m-567 -335 c0 -5
-12 -10 -27 -12 -24 -3 -29 -9 -39 -55 -12 -52 -12 -53 9 -38 12 8 28 15 36
15 14 0 13 -12 -5 -100 -7 -32 -6 -34 9 -21 9 7 17 9 17 5 0 -5 -10 -15 -21
-22 -34 -22 -42 -2 -26 62 8 31 11 56 7 56 -17 0 -48 -51 -54 -90 -4 -27 -11
-40 -19 -37 -6 2 -11 8 -11 13 16 92 39 184 50 202 22 34 74 50 74 22z m90
-25 c0 -8 -4 -15 -9 -15 -13 0 -22 16 -14 24 11 11 23 6 23 -9z m-229 -7 c11
-9 14 -22 9 -43 l-6 -30 -7 33 c-15 71 -99 17 -112 -72 -14 -89 29 -134 81
-85 13 12 24 18 24 11 0 -17 -50 -52 -76 -52 -33 0 -64 45 -64 92 0 98 97 191
151 146z m200 -123 c-16 -62 -15 -70 7 -54 14 11 13 10 -2 -9 -21 -24 -46 -29
-46 -9 0 7 6 36 14 65 13 50 11 60 -10 45 -5 -5 2 3 16 16 22 22 25 22 28 7 2
-10 -1 -38 -7 -61z m127 41 c-2 -11 -17 -30 -35 -41 -18 -11 -32 -28 -33 -37
0 -19 25 -25 35 -8 3 6 12 10 18 10 7 0 -1 -12 -17 -26 -15 -14 -36 -24 -45
-22 -21 4 -26 51 -10 89 24 59 94 87 87 35z m256 3 c-4 -6 -11 -6 -20 2 -11 9
-18 9 -26 1 -7 -7 -4 -19 11 -40 25 -36 26 -55 5 -76 -20 -20 -63 -21 -70 -1
-5 13 -8 13 -27 0 -12 -8 -25 -15 -29 -15 -12 0 -10 52 3 89 6 18 9 35 5 38
-8 8 -46 -26 -46 -41 0 -6 -5 -28 -11 -48 -12 -44 -34 -52 -26 -10 21 107 21
108 4 93 -10 -7 -17 -10 -17 -6 0 11 32 34 48 35 6 0 12 -7 12 -17 0 -15 1
-15 18 0 19 17 52 23 52 10 0 -5 -7 -33 -15 -63 -8 -30 -15 -56 -15 -57 0 -1
12 5 27 12 25 13 28 13 35 -5 9 -23 21 -25 36 -7 8 9 6 21 -8 42 -26 39 -25
60 2 79 23 16 64 4 52 -15z"/>
<path d="M1056 1448 c-19 -30 -24 -80 -9 -85 15 -5 39 33 47 75 7 39 -15 45
-38 10z"/>
<path d="M570 1444 c-14 -35 -13 -36 10 -22 11 7 20 21 20 30 0 27 -19 22 -30
-8z"/>
<path d="M872 1441 c-9 -25 -8 -29 4 -24 18 7 36 38 27 47 -12 12 -21 6 -31
-23z"/>
<path d="M1192 1441 c-9 -25 -8 -29 4 -24 18 7 36 38 27 47 -12 12 -21 6 -31
-23z"/>
<path d="M922 1015 c-16 -35 -15 -37 8 -25 11 6 20 20 20 30 0 28 -15 25 -28
-5z"/>
<path d="M2227 1683 c-4 -3 -7 -19 -7 -34 0 -42 -9 -57 -46 -80 -34 -21 -34
-22 -19 -45 9 -14 14 -28 11 -32 -3 -5 1 -26 9 -48 11 -33 11 -42 0 -60 -11
-17 -12 -41 -5 -110 4 -49 13 -101 19 -116 18 -46 2 -125 -36 -177 -36 -50
-44 -66 -63 -124 -11 -37 -54 -86 -138 -158 l-42 -36 0 -114 c0 -125 11 -159
54 -159 24 0 56 -28 56 -48 0 -16 -33 -32 -65 -32 l-26 0 27 -35 c15 -20 24
-39 20 -42 -4 -4 -46 -6 -94 -5 -77 1 -89 4 -104 24 -10 13 -18 35 -18 49 0
15 -10 39 -22 54 -12 16 -34 62 -49 104 -23 62 -28 70 -28 44 -1 -47 -19 -79
-57 -99 -31 -17 -32 -19 -17 -36 21 -24 2 -48 -40 -48 l-30 0 22 -24 c26 -27
25 -59 -2 -64 -32 -6 -46 27 -47 105 0 43 -7 89 -16 114 -13 31 -15 58 -11
114 8 87 -4 103 -40 56 -29 -36 -59 -40 -97 -10 -34 27 -49 16 -41 -30 5 -31
2 -40 -24 -63 -29 -28 -49 -81 -69 -183 -5 -27 -12 -58 -17 -67 -5 -14 -2 -18
13 -18 17 0 23 10 32 53 6 28 19 63 29 76 l18 24 7 -63 c10 -86 -6 -110 -73
-110 -58 0 -81 7 -81 25 0 21 -98 17 -121 -6 -18 -18 -37 -19 -247 -19 -189 0
-240 3 -307 19 -122 30 -311 97 -381 136 l-64 36 0 -211 0 -210 1120 0 1120 0
0 845 c0 465 -1 845 -3 845 -2 0 -7 -3 -10 -7z m-776 -1409 c4 -46 2 -49 -21
-52 -22 -4 -23 -2 -10 13 14 16 13 17 -10 10 -14 -4 -26 -12 -28 -16 -2 -5
-19 -9 -38 -9 -38 0 -39 4 -25 90 l7 45 16 -30 c9 -17 16 -40 15 -50 -2 -22
37 -32 62 -16 19 12 6 41 -19 41 -29 0 -25 22 8 41 33 18 38 10 43 -67z"/>
</g>
</svg>
